inDegrees=no
num_controls=7
num_derivatives=13
num_iterations=86
num_multipliers=7
num_parameters=0
num_slacks=7
num_states=26
objective=0.453181
objective_accelerations=0.001343
objective_balance=0.004737
objective_effort=0.009567
objective_height=0.415618
objective_ligament=0.021916
solver_duration=1222.560232
status=Solve_Succeeded
success=true
DataType=double
version=3
OpenSimVersion=4.5
endheader
time	/jointset/ground_pelvis/pelvis_tilt/value	/jointset/ground_pelvis/pelvis_tx/value	/jointset/ground_pelvis/pelvis_ty/value	/jointset/hip_l/hip_flexion_l/value	/jointset/hip_l/hip_adduction_l/value	/jointset/hip_l/hip_rotation_l/value	/jointset/back/lumbar_extension/value	/jointset/patellofemoral_l/patellar_flexion_l/value	/jointset/knee_l/knee_flexion_l/value	/jointset/knee_l/knee_adduction_l/value	/jointset/knee_l/knee_rotation_l/value	/jointset/ankle_l/ankle_angle_l/value	/jointset/subtalar_l/subtalar_angle_l/value	/jointset/ground_pelvis/pelvis_tilt/speed	/jointset/ground_pelvis/pelvis_tx/speed	/jointset/ground_pelvis/pelvis_ty/speed	/jointset/hip_l/hip_flexion_l/speed	/jointset/hip_l/hip_adduction_l/speed	/jointset/hip_l/hip_rotation_l/speed	/jointset/back/lumbar_extension/speed	/jointset/patellofemoral_l/patellar_flexion_l/speed	/jointset/knee_l/knee_flexion_l/speed	/jointset/knee_l/knee_adduction_l/speed	/jointset/knee_l/knee_rotation_l/speed	/jointset/ankle_l/ankle_angle_l/speed	/jointset/subtalar_l/subtalar_angle_l/speed	/forceset/tau_hip_flexion_l	/forceset/tau_hip_adduction_l	/forceset/tau_hip_rotation_l	/forceset/tau_knee_flexion_l	/forceset/tau_ankle_angle_l	/forceset/tau_subtalar_angle_l	/forceset/tau_lumbar_extension	lambda_cid13_p0	lambda_cid13_p1	lambda_cid13_p2	lambda_cid13_p3	lambda_cid13_p4	lambda_cid13_p5	lambda_cid14_p0	/jointset/ground_pelvis/pelvis_tilt/accel	/jointset/ground_pelvis/pelvis_tx/accel	/jointset/ground_pelvis/pelvis_ty/accel	/jointset/hip_l/hip_flexion_l/accel	/jointset/hip_l/hip_adduction_l/accel	/jointset/hip_l/hip_rotation_l/accel	/jointset/back/lumbar_extension/accel	/jointset/patellofemoral_l/patellar_flexion_l/accel	/jointset/knee_l/knee_flexion_l/accel	/jointset/knee_l/knee_adduction_l/accel	/jointset/knee_l/knee_rotation_l/accel	/jointset/ankle_l/ankle_angle_l/accel	/jointset/subtalar_l/subtalar_angle_l/accel	gamma_cid13_p0	gamma_cid13_p1	gamma_cid13_p2	gamma_cid13_p3	gamma_cid13_p4	gamma_cid13_p5	gamma_cid14_p0
0	-0.1601675958882535	0.05857454769224246	0.8979987034155726	0.3774924667018715	-0.2591371382076437	-0.2729686937125291	-0.01265067647494873	0.03223648243723856	0.03223648243721463	-0.1745329185405462	0.174525785304345	-0.04231377076293093	-0.009261586695593195	0	0	0	0	0	0	0	0	0	0	0	0	0	0.04534895562069361	0.01526139932401442	-0.03956163615387851	-0.2197014788202599	0.2576546395177543	-0.08484237998936094	0.002014061103286525	37.46135572374121	22.20992998403615	5.283619512928797	-17.14671500946908	-629.9721162286537	-21.9756007359672	-39.07479609468219	-0.2458655881158023	0.1466364025119889	-0.01438120694014711	0.2066324426305324	0.005318864176049853	0.1096933365754124	-0.5145170204847979	0.2037292030780461	0.2037292030780443	0.07017208951664677	-0.03095287247186358	0.2809997207723051	0.06935072173901125	-4.271723934668431e-10	4.893224384991869e-10	7.061286953298871e-11	-4.933838854281583e-12	-1.310938210962549e-08	-1.702131753345945e-09	2.766775492866466e-10
0.01	-0.1601821111269739	0.05858399671130599	0.8979980235337712	0.3775020163947388	-0.2591371537885658	-0.2729636347035108	-0.01267720502431072	0.03224597106051907	0.03224597106041364	-0.174530215727957	0.1745245342631151	-0.04229753621291499	-0.009257874728355157	-0.003127359576358377	0.002101296818148369	-0.0001329309142603885	0.001841169670040315	-3.28921444954317e-05	0.0009633902987508307	-0.005386865960491796	0.001841586688890786	0.001841586688891182	0.0004593672311863771	-0.0002102939030398609	0.003470569109498154	0.0007665205100209597	0.05737228824665965	0.005354090466412385	-0.04292365529529641	-0.2429428321940829	0.2929196530089413	-0.08773586309466752	-0.005846094123057223	48.74427926108228	21.74420657219434	5.068658927861799	-26.56928580627351	-630.7591731056414	-24.88550785342382	-39.07510073169554	-0.3798178563945048	0.2736002699764158	-0.01229483875235734	0.1625437224331958	-0.01205977407718804	0.08240019736688688	-0.5629447960873711	0.1659526533508984	0.1659526533509496	0.02163996425723241	-0.01008042170966625	0.4136344519363676	0.08392169820171244	-2.699925983098805e-11	4.276448762147448e-10	-1.592253106495576e-10	-1.571227615553735e-11	-2.286134293369831e-09	-5.484111137609288e-11	1.072147247766008e-10
0.02	-0.1602346293042857	0.05862080348825172	0.8979961051818076	0.3775279146829361	-0.2591383915950016	-0.2729503941273378	-0.01276003691573774	0.03227219140089062	0.03227219140088162	-0.1745253550583463	0.1745223777286942	-0.04223988618263157	-0.009245773759503454	-0.007600587712535221	0.005471551576439324	-0.000247694032436879	0.003269719069764053	-0.0002444451016264764	0.001636313431153092	-0.01126066841115602	0.003346343440028713	0.003346343440029297	0.0004315714358605946	-0.0001810987056612186	0.008283096054895195	0.001677800322752524	0.06939562087266123	-0.004553218391059709	-0.04628567443584843	-0.2661841855680192	0.328184666500171	-0.090629346199849	-0.01370624934942201	60.02989494742378	21.27911856228686	4.852332853220359	-36.01630969732629	-631.5202342386975	-27.79081631468307	-39.07584870516126	-0.5150393000790164	0.4004279905400346	-0.01074764772341207	0.124108388567266	-0.0304132983514798	0.0515999033056414	-0.6119043185189877	0.1363632155275938	0.1363632155275506	-0.02726051578656236	0.01694494761194426	0.5493912879514281	0.09830258228058057	3.73173873804867e-10	3.659673139303026e-10	-3.890634908321038e-10	-2.649071345679312e-11	8.537113522885828e-09	1.592449530593759e-09	-6.224809973344491e-11
0.03	-0.1603350541686154	0.05869438612694321	0.8979930905537226	0.3775668862497068	-0.2591422473611486	-0.2729313147752154	-0.01290246331356466	0.03231248936380829	0.03231248936380753	-0.1745221492794077	0.1745212263082803	-0.04213096032411918	-0.009224298097107139	-0.01235259807695424	0.00912940210886105	-0.0003559604766918215	0.004540781043910658	-0.0005158787221374397	0.002193698302914456	-0.01714870013508057	0.004728012346161269	0.004728012346160711	0.0002378968477073859	-6.408204786887003e-05	0.01337059390320786	0.002596855158105054	0.0620918756095054	0.0004629633583690542	-0.04427001341039875	-0.2523498070647118	0.3071085984097051	-0.08798614602570165	-0.00885850749379072	53.32602227649326	21.18156629570923	5.008849207560887	-30.56427079868759	-631.1087134123776	-26.81709491034699	-39.0769055847973	-0.4355138795134531	0.3311274700637068	-0.01097372554349944	0.1310332327660167	-0.02388394162285416	0.05992902262204265	-0.5658659456933998	0.1412832223721665	0.1412832223720878	-0.01117414610911947	0.006845561954635912	0.468706735360728	0.085635364030144	2.055838577388049e-10	2.760467528818228e-10	-2.261060277791845e-10	-3.033619055870466e-11	4.540220800951439e-09	9.422228945216049e-10	-2.929487842325944e-11
